PathFileType	4	(X/Y/Z)	pose2sim_0-881.trc
DataRate	CameraRate	NumFrames	NumMarkers	Units	OrigDataRate	OrigDataStartFrame	OrigNumFrames
50	50	8	22	m	50	661	882
Frame#	Time	Hip			RHip			RKnee			RAnkle			RBigToe			RSmallToe			RHeel			LHip			LKnee			LAnkle			LBigToe			LSmallToe			LHeel			Neck			Head			Nose			RShoulder			RElbow			RWrist			LShoulder			LElbow			LWrist			
		X1	Y1	Z1	X2	Y2	Z2	X3	Y3	Z3	X4	Y4	Z4	X5	Y5	Z5	X6	Y6	Z6	X7	Y7	Z7	X8	Y8	Z8	X9	Y9	Z9	X10	Y10	Z10	X11	Y11	Z11	X12	Y12	Z12	X13	Y13	Z13	X14	Y14	Z14	X15	Y15	Z15	X16	Y16	Z16	X17	Y17	Z17	X18	Y18	Z18	X19	Y19	Z19	X20	Y20	Z20	X21	Y21	Z21	X22	Y22	Z22	
661	13.22	0.1370532114756111	0.9709166126311141	-0.04594818536541988	0.028060590133051413	0.9578152908746906	-0.03553606310746833	0.011879228958456469	0.5220695357705343	-0.06440526285341847	0.002249544049968178	0.09122551869050523	-0.07124655308161819	0.0008086578721105414	0.03907448485043095	0.09937988552435673	-0.048899980738114926	0.04131255148164481	0.05049536939735463	0.00838089088245946	0.04901643472909711	-0.10714631030915635	0.24247102166972365	0.9573226214925977	-0.05693805132638099	0.24219193945302964	0.5190464016014122	-0.10213340952988048	0.247092805529187	0.08781219783235131	-0.10469448915247193	0.2926501978330289	0.03400261808644643	0.06855419760235995	0.33212221088525135	0.03535156346007919	0.0037766869123911345	0.2363957843306475	0.042221342525396936	-0.14211708477045823	0.14848111397427585	1.576775976161819	-0.05493417925427493	0.1512576874028257	1.8199935556190963	-0.01137433180578727	0.16502447777355728	1.692111504914119	0.12304740369288772	-0.015030814342926935	1.4664620184407058	-0.0421269593047715	-0.07250543644479637	1.1828194492836945	-0.0034481826381119905	-0.16184045060705057	0.946516527990916	0.04862719170489647	0.31713270933244014	1.470455581379333	-0.0835973627033624	0.3835975578110097	1.198834281065382	-0.055930519274454395	0.48010501975971054	0.964009905804432	-0.0062558951422168625
662	13.24	0.1353975250414956	0.968634966781774	-0.050214117102529335	0.028734290256023108	0.9571663926154065	-0.035659017140523934	0.012556355958855988	0.5217387104966148	-0.0632980577721162	0.0016154661727074162	0.09292853574416911	-0.0732006215653622	-0.00020744183514958986	0.041128886143176835	0.097217481574132	-0.05148476276890294	0.04072387961368609	0.04317800900017133	0.010574218602074519	0.04785624525261422	-0.11227875150202027	0.2423100912403807	0.9539140503527215	-0.05677841913949326	0.24021269575176982	0.518438255119486	-0.10120246578204876	0.2469282381290129	0.09081486256765625	-0.10790474201117989	0.29044296111878465	0.036704934185476795	0.06257573216604395	0.33139600269141023	0.03708994325807788	-0.0015921832056948679	0.2346676495929954	0.047211986475098514	-0.14088630776662817	0.1486381056391483	1.5787414819523748	-0.05465754500280192	0.1529927078147744	1.8220686381510665	-0.007569203066306189	0.16220205522126332	1.6923588725157865	0.11221422218777465	-0.011556855279735562	1.4687998363361827	-0.048116151216233326	-0.07155850261646661	1.182885290231229	-0.0033780556714297616	-0.15805548984792103	0.949220877547964	0.06498404642993431	0.3160500556376251	1.4702211685363569	-0.09024273631745691	0.38402161982035427	1.1968107441768814	-0.05069939489253552	0.48544738891670347	0.9658717820065545	0.007457713482371999
663	13.26	0.13497554121799613	0.9686457053043065	-0.04400432249757166	0.027797970528880767	0.9572583392866783	-0.03574572519671923	0.012606271264852665	0.5243452116077534	-0.06834281268329888	0.0031936278480451338	0.09053552372195911	-0.07970544279196888	0.0019745495695481403	0.04032570224549728	0.10009358955956132	-0.0451008552151712	0.041314356559429014	0.04663875362588322	0.009423881973901593	0.048532670983137724	-0.11501435582426366	0.2428122312395399	0.9553867357288844	-0.06173081193045369	0.24116477579377157	0.5211371030171706	-0.100797620591985	0.246313978614876	0.09149338900538098	-0.10303506515910547	0.29312746495065367	0.037381889032661056	0.06315058232272695	0.33369486392038994	0.03782696708539588	-0.004631792059411655	0.23375872185750832	0.04743616688587069	-0.1439845615771437	0.14942588477308813	1.5765985638906141	-0.053326311594897674	0.1508015686103057	1.821703108216788	-0.006635160448271504	0.16024755196329857	1.6917344930061813	0.10899137333999079	-0.012460020597927775	1.4681925426399522	-0.050406830967745044	-0.06809906428966787	1.1840208806963197	-0.008238921923141684	-0.16130747135777276	0.9557668788698097	0.07786022070224519	0.31535631186181085	1.4677268468016813	-0.09184699754389097	0.3824457306964325	1.1960889438612075	-0.04921445123327735	0.48764027397301246	0.9701516180099767	0.022000057837637386
664	13.28	0.13238291543945943	0.9767058571641	-0.03822709354255226	0.028209525328847268	0.9622487622542618	-0.03338093671518135	0.013607420315224201	0.5192982956982065	-0.06675190453566741	0.003327156265228318	0.09064624379326552	-0.0836985515502689	0.00021331174598918743	0.039829848785976445	0.11114408890508638	-0.047325558700123206	0.03958471724984282	0.058670441019552586	0.008959499568781547	0.04646061838333734	-0.12428922321159457	0.23797728569866775	0.9597231341139234	-0.04419310232450914	0.2424458947457836	0.5216039572768617	-0.09917231805669471	0.2460202921658512	0.08751773790825008	-0.10979729887336337	0.2886749154556001	0.03604976618855496	0.0845027096982635	0.32314650432645453	0.032406445289235634	0.02348533531363805	0.23123870082115822	0.04077945111839624	-0.14867482737162194	0.14874081320283952	1.576694680748882	-0.056080704292656214	0.15015548304446497	1.8181604532227058	-0.006219023203124696	0.1589772685329575	1.692421853410533	0.11475357994613371	-0.011260013381555786	1.4689737775032765	-0.04541486122629671	-0.06772912741233672	1.1887299130489088	0.0013703452116706981	-0.15107700799840076	0.9625753309492461	0.11328444889493712	0.3118777498328471	1.4693128932471056	-0.09051050427026759	0.3812030754161033	1.1976754947892776	-0.048222582863622215	0.4862795044636902	0.9708351443399055	0.03747264155242362
665	13.3	0.1338822369204697	0.9717640151253549	-0.04803406275161685	0.028309125789460318	0.9555426622038182	-0.0341206825083555	0.014721077214807112	0.5186174043336195	-0.06870414186645954	0.003317472975124282	0.09111910634562548	-0.08223835119500583	-0.0028140477284882737	0.03572454794215956	0.09039739820133724	-0.049970594431913186	0.0408302247443058	0.04652459483421446	0.010883127877313268	0.04609897600171211	-0.1234975174941477	0.2434694066024301	0.9551320429292428	-0.05766162517036282	0.2419068392305373	0.5201156638788188	-0.10564348044393186	0.2487175179705472	0.08870868692403125	-0.10338572329635484	0.29245368411184824	0.03612619202169482	0.0637852480777182	0.3352062015196876	0.03986381658368752	0.006356057258964859	0.23337949841761163	0.04284228120159112	-0.137551510860644	0.15112759233057674	1.5753557871484754	-0.059155919551129796	0.15237753887623345	1.8189419658094874	-0.01793558427262449	0.1630549000109901	1.686999789124269	0.1039160563051662	-0.010525681492112018	1.4681615059900424	-0.05000446093689801	-0.06777779190284701	1.1893384237536953	0.0008617900793199356	-0.15653196129153288	0.9694320289117322	0.10825598860391583	0.31489396490931026	1.4678048870549811	-0.09758223012217428	0.381920332443456	1.1971235637134092	-0.056166367396192754	0.4892033070931686	0.9784836922911645	0.04515375344278468
666	13.32	0.13363047266470618	0.9709903920724278	-0.05047469609997226	0.02809273597626165	0.9574461837760004	-0.04245768510147278	0.015103131368940268	0.5226545075538048	-0.06875094958521394	0.004094362522445245	0.09150542604941535	-0.08116543136068143	0.0008097661796947618	0.037687293993628024	0.09643691001215544	-0.04633357390107972	0.03945505255095695	0.048073815535510614	0.010369294779830507	0.04811264671365476	-0.12310434902006383	0.24334802401845942	0.9568246639657828	-0.062323330307567454	0.24186600286727203	0.522494903698248	-0.10785588658056797	0.24727368909379124	0.09220104167623203	-0.10177192212785713	0.2855963903925947	0.038045666121377684	0.06055839633859042	0.32986849673714186	0.03895473555464581	0.0018872260645912034	0.23491248110837548	0.04643754120137594	-0.13934255826740513	0.1512273414969306	1.5768553248981214	-0.06201600893373762	0.15404552335725935	1.821059848712358	-0.01820108986109765	0.1615609787453296	1.6907500979509038	0.09301011491326275	-0.008820684355699878	1.4710573733289498	-0.05566033878167442	-0.06720356573669158	1.1912162017296832	-0.0009209560439755054	-0.15949316410184636	0.9772265487730835	0.11637856367097522	0.3113711539406787	1.4710825431277534	-0.10694649775546883	0.3799477197931942	1.2006974530275507	-0.05611672935666152	0.4888142726638048	0.9899673404700946	0.048363331762084995
667	13.34	0.13307088140217097	0.9736042126646283	-0.0497018322015494	0.02753329316131759	0.9587744320960169	-0.041012902878892775	0.01458020014903469	0.5229152162981615	-0.06865423933253437	0.005201352358434192	0.09030149507662649	-0.08287052442037246	0.004059100403763261	0.036665600931486235	0.09017563708731809	-0.04325399737295926	0.03725716750304606	0.04522235830497923	0.012652408907373625	0.04554636232366497	-0.12408558200349107	0.24087953244041116	0.955486547423	-0.06333008304525385	0.24396912250313912	0.5231272816998185	-0.1072865114211365	0.2448568580386407	0.09125784432074975	-0.10293378430835659	0.28817155740663253	0.035760563610614554	0.0585919369338182	0.33109238048357503	0.04080204008436071	0.004875072354389191	0.23108124767087107	0.04631243480701307	-0.14327230268870775	0.1514943277160974	1.5766532425875504	-0.07000344755513346	0.1546289572342805	1.820578994445834	-0.019290711716141645	0.16466054647281078	1.6902369012165583	0.09672556898203324	-0.010618027956512384	1.4720999428292163	-0.05060792027836849	-0.06760530244443645	1.1953094234106312	0.0011650448533822972	-0.1559596391028812	0.9881156068291854	0.13104420995643742	0.31182721351930665	1.4710899178003862	-0.10878197289102133	0.3783143696098015	1.200577468875903	-0.061828880818322704	0.4901167419059545	0.9967102621160915	0.061770036906170514
668	13.36	0.1344383714653618	0.9817059996020697	-0.04180290238737972	0.031685611374581264	0.9657470411662069	-0.041644430454789806	0.013538001364774371	0.5241726095830539	-0.0670861003308997	0.0033098792676423735	0.08862373298348668	-0.07967395611728499	-0.0005955737178935618	0.03529491477136453	0.0988130438924122	-0.05289984233883889	0.036504718944300206	0.046354629216420834	0.01041013718019514	0.04332083818350491	-0.12014276442402307	0.238896025044694	0.9631057841353515	-0.04820018171908203	0.2415585915896551	0.5231042921109592	-0.10345214208050926	0.24622492561481543	0.08915485619469227	-0.10404875013913778	0.28697046229209333	0.035604881969679425	0.08977604214523721	0.32322556759329596	0.03195143841425228	0.02524639568659421	0.2292904150429925	0.041462131573123326	-0.14008927238230115	0.14918246830409657	1.576915490827092	-0.07202655676196072	0.1480516872346165	1.8182747181617744	-0.022149384352226423	0.1531391966627514	1.6922185525093512	0.09063751304790468	-0.013074870045909874	1.4673640343885856	-0.05547909987654569	-0.06910508444546275	1.1908058256251637	0.008909874243685069	-0.15459143167696063	0.988531887876262	0.16060439970352566	0.31385402750335933	1.4687270318238819	-0.09865084441499544	0.3750455045415283	1.2019516282012324	-0.056477993216305464	0.49173525291086584	1.009198271358357	0.09564533939598857
